<?xml version="1.0" encoding="utf-8"?>
<!-- Generator: Adobe Illustrator 16.0.4, SVG Export Plug-In . SVG Version: 6.00 Build 0)  -->
<!DOCTYPE svg PUBLIC "-//W3C//DTD SVG 1.1 Tiny//EN" "http://www.w3.org/Graphics/SVG/1.1/DTD/svg11-tiny.dtd">
<svg version="1.1" baseProfile="tiny" id="Layer_1" xmlns="http://www.w3.org/2000/svg" xmlns:xlink="http://www.w3.org/1999/xlink"
	 x="0px" y="0px" width="200px" height="200px" viewBox="0 0 200 200" overflow="auto" xml:space="preserve">
<g>
	<path fill="#E6E6E6" d="M100,197.5c-53.762,0-97.5-43.738-97.5-97.5S46.238,2.5,100,2.5s97.5,43.738,97.5,97.5
		S153.762,197.5,100,197.5z"/>
	<path d="M100,5c52.383,0,95,42.617,95,95c0,52.383-42.617,95-95,95c-52.383,0-95-42.617-95-95C5,47.617,47.617,5,100,5 M100,0
		C44.771,0,0,44.771,0,100s44.771,100,100,100s100-44.771,100-100S155.229,0,100,0L100,0z"/>
</g>
</svg>
